<svg width="112" height="50" viewBox="0 0 112 50" fill="none" xmlns="http://www.w3.org/2000/svg">
<path d="M62.324 33.384C60.94 33.384 59.644 33.12 58.436 32.592C57.228 32.064 56.168 31.332 55.256 30.396C54.344 29.452 53.628 28.36 53.108 27.12C52.596 25.872 52.34 24.536 52.34 23.112C52.34 21.688 52.596 20.356 53.108 19.116C53.628 17.868 54.344 16.776 55.256 15.84C56.168 14.896 57.228 14.16 58.436 13.632C59.644 13.104 60.94 12.84 62.324 12.84C63.708 12.84 65.004 13.104 66.212 13.632C67.42 14.16 68.48 14.896 69.392 15.84C70.304 16.776 71.016 17.868 71.528 19.116C72.048 20.356 72.308 21.688 72.308 23.112C72.308 24.536 72.048 25.872 71.528 27.12C71.016 28.36 70.304 29.452 69.392 30.396C68.48 31.332 67.42 32.064 66.212 32.592C65.004 33.12 63.708 33.384 62.324 33.384ZM62.312 29.64C63.16 29.64 63.936 29.48 64.64 29.16C65.344 28.84 65.956 28.388 66.476 27.804C66.996 27.22 67.4 26.532 67.688 25.74C67.976 24.94 68.12 24.064 68.12 23.112C68.12 22.16 67.976 21.288 67.688 20.496C67.4 19.696 66.996 19.004 66.476 18.42C65.956 17.836 65.344 17.384 64.64 17.064C63.936 16.744 63.16 16.584 62.312 16.584C61.48 16.584 60.708 16.744 59.996 17.064C59.292 17.384 58.68 17.836 58.16 18.42C57.64 19.004 57.236 19.696 56.948 20.496C56.668 21.288 56.528 22.16 56.528 23.112C56.528 24.064 56.668 24.94 56.948 25.74C57.236 26.532 57.64 27.22 58.16 27.804C58.68 28.388 59.292 28.84 59.996 29.16C60.708 29.48 61.48 29.64 62.312 29.64ZM77.2646 33L79.2326 13.2H83.3606L88.0886 25.584L92.8166 13.2H96.9446L98.9126 33H95.0246L93.8006 20.184L89.2766 32.508H86.8886L82.3766 20.184L81.1406 33H77.2646ZM105.315 33V13.2H109.203V33H105.315Z" fill="#00008B"/>
<rect x="8.5" y="2.5" width="39" height="39" stroke="#00008B" stroke-width="5"/>
<path d="M24.4528 32V15.632H19.4368V12.2H33.3568V15.632H28.3288V32H24.4528ZM37.1184 32.384C36.6704 32.384 36.2624 32.276 35.8944 32.06C35.5344 31.844 35.2464 31.556 35.0304 31.196C34.8224 30.828 34.7184 30.424 34.7184 29.984C34.7184 29.536 34.8224 29.132 35.0304 28.772C35.2464 28.412 35.5384 28.124 35.9064 27.908C36.2744 27.692 36.6784 27.584 37.1184 27.584C37.5664 27.584 37.9704 27.692 38.3304 27.908C38.6904 28.124 38.9784 28.412 39.1944 28.772C39.4104 29.132 39.5184 29.536 39.5184 29.984C39.5184 30.424 39.4104 30.828 39.1944 31.196C38.9784 31.556 38.6904 31.844 38.3304 32.06C37.9704 32.276 37.5664 32.384 37.1184 32.384Z" fill="#00008B"/>
</svg>
