<svg width="40" height="40" viewBox="0 0 40 40" fill="none" xmlns="http://www.w3.org/2000/svg">
<path opacity="0.8" d="M36.5288 26.4258C33.2609 33.1594 12.3726 39.1122 7.09192 32.5632C2.03172 26.2875 6.12596 6.58213 14.4062 5.49265C21.5724 4.54974 39.8707 19.5397 36.5288 26.4258Z" fill="#7979F4"/>
<path opacity="0.8" d="M23.2622 36.5297C15.4765 39.0337 2.47476 22.7421 4.50945 17.1861C7.23811 9.73513 25.7053 6.27487 30.8614 10.4154C36.0175 14.556 31.048 34.0257 23.2622 36.5297Z" fill="#00008B"/>
<path fill-rule="evenodd" clip-rule="evenodd" d="M20.5 13.625C16.1498 13.625 12.625 17.1498 12.625 21.5C12.625 24.9786 14.8809 27.9318 18.0109 28.9725C18.4056 29.0443 18.5492 28.8033 18.5492 28.5931C18.5492 28.406 18.5415 27.9113 18.5389 27.255C16.3472 27.7292 15.8857 26.1989 15.8857 26.1989C15.5269 25.2888 15.0116 25.0453 15.0116 25.0453C14.2964 24.5582 15.0654 24.5685 15.0654 24.5685C15.855 24.6249 16.2703 25.3785 16.2703 25.3785C16.9727 26.5834 18.1134 26.2347 18.562 26.0348C18.6338 25.5247 18.8389 25.1786 19.0619 24.9812C17.3136 24.7838 15.4756 24.1071 15.4756 21.0898C15.4756 20.2285 15.7832 19.5261 16.2856 18.975C16.2062 18.7776 15.9344 17.9752 16.3625 16.8909C16.3625 16.8909 17.0239 16.6807 18.5287 17.6984C19.1567 17.524 19.8309 17.4369 20.5 17.4343C21.1691 17.4369 21.8433 17.524 22.4713 17.6984C23.9761 16.6807 24.6349 16.8909 24.6349 16.8909C25.0656 17.9752 24.7964 18.7776 24.7144 18.975C25.2194 19.5261 25.5219 20.2285 25.5219 21.0898C25.5219 24.1147 23.6813 24.7787 21.9279 24.9761C22.2098 25.217 22.4611 25.699 22.4611 26.4321C22.4611 27.4857 22.4534 28.3342 22.4534 28.5931C22.4534 28.8033 22.5944 29.0494 22.9943 28.9725C26.1217 27.9292 28.375 24.9786 28.375 21.5C28.375 17.1498 24.8502 13.625 20.5 13.625Z" fill="#F7F7F7"/>
</svg>
